<svg id="fpo-logo" data-name="fpo-logo" xmlns="http://www.w3.org/2000/svg" width="120" height="40" viewBox="0 0 120 40"><title>logo</title><rect x="0.5" y="0.5" width="119" height="39" style="fill:#fff"/><path d="M119,1V39H1V1H119m1-1H0V40H120V0h0Z"/><path d="M27.52,23.879h-0.8V12.457h6.258v0.734H27.52v4.844h5.156v0.742H27.52v5.1Z"/><path d="M41.629,15.738A3.036,3.036,0,0,1,40.5,18.277a5.056,5.056,0,0,1-3.187.883H35.551v4.719h-0.8V12.457h2.8Q41.629,12.457,41.629,15.738Zm-6.078,2.734h1.57a4.757,4.757,0,0,0,2.789-.637,2.4,2.4,0,0,0,.859-2.066,2.334,2.334,0,0,0-.812-1.957,4.064,4.064,0,0,0-2.516-.637H35.551v5.3Z"/><path d="M53.715,18.152a6.38,6.38,0,0,1-1.359,4.3,5.226,5.226,0,0,1-7.492,0A6.4,6.4,0,0,1,43.5,18.137a6.3,6.3,0,0,1,1.371-4.293,4.722,4.722,0,0,1,3.746-1.566,4.67,4.67,0,0,1,3.742,1.574A6.388,6.388,0,0,1,53.715,18.152Zm-9.344,0a5.849,5.849,0,0,0,1.094,3.793,4.378,4.378,0,0,0,6.293.012,5.857,5.857,0,0,0,1.09-3.8,5.8,5.8,0,0,0-1.09-3.785,4.391,4.391,0,0,0-6.281.012A5.744,5.744,0,0,0,44.371,18.152Z"/><path d="M60.5,23.879V12.457h0.8V23.129h5.445v0.75H60.5Z"/><path d="M75.535,19.621a4.809,4.809,0,0,1-1.008,3.246,3.48,3.48,0,0,1-2.781,1.168,3.6,3.6,0,0,1-1.969-.539,3.448,3.448,0,0,1-1.3-1.547,5.633,5.633,0,0,1-.453-2.328,4.779,4.779,0,0,1,1.008-3.238,3.472,3.472,0,0,1,2.766-1.16A3.407,3.407,0,0,1,74.539,16.4,4.83,4.83,0,0,1,75.535,19.621Zm-6.7,0a4.322,4.322,0,0,0,.77,2.73,2.9,2.9,0,0,0,4.352,0,4.322,4.322,0,0,0,.77-2.73,4.252,4.252,0,0,0-.777-2.727,2.642,2.642,0,0,0-2.184-.969,2.6,2.6,0,0,0-2.168.965A4.314,4.314,0,0,0,68.832,19.621Z"/><path d="M84.511,15.387v0.539l-1.758.109a3,3,0,0,1,.7,1.922,2.6,2.6,0,0,1-.816,1.988,3.083,3.083,0,0,1-2.191.762,4.762,4.762,0,0,1-.812-0.047,2.012,2.012,0,0,0-.7.57,1.153,1.153,0,0,0-.242.7A0.643,0.643,0,0,0,79,22.52a2.1,2.1,0,0,0,1.035.188h1.484a3.448,3.448,0,0,1,2.117.559,1.947,1.947,0,0,1,.734,1.652,2.353,2.353,0,0,1-1.09,2.074,5.556,5.556,0,0,1-3.105.73,4.277,4.277,0,0,1-2.48-.617,1.982,1.982,0,0,1-.879-1.719,2.036,2.036,0,0,1,.543-1.453,2.811,2.811,0,0,1,1.473-.789,1.5,1.5,0,0,1-.613-0.465,1.106,1.106,0,0,1-.23-0.691,1.819,1.819,0,0,1,1.086-1.5,2.422,2.422,0,0,1-1.156-.957,2.728,2.728,0,0,1-.414-1.5,2.69,2.69,0,0,1,.809-2.043,3.037,3.037,0,0,1,2.184-.77,4.025,4.025,0,0,1,1.3.164h2.719Zm-6.875,9.93q0,1.75,2.6,1.75,3.344,0,3.344-2.133a1.229,1.229,0,0,0-.523-1.109,3.183,3.183,0,0,0-1.7-.344H79.972Q77.636,23.48,77.636,25.316Zm0.648-7.281a1.959,1.959,0,0,0,.6,1.527,2.676,2.676,0,0,0,3.227,0A2.054,2.054,0,0,0,82.676,18a2.125,2.125,0,0,0-.582-1.629,2.3,2.3,0,0,0-1.629-.543,2.16,2.16,0,0,0-1.6.582A2.193,2.193,0,0,0,78.285,18.035Z"/><path d="M93.277,19.621a4.809,4.809,0,0,1-1.008,3.246,3.48,3.48,0,0,1-2.781,1.168,3.6,3.6,0,0,1-1.969-.539,3.448,3.448,0,0,1-1.3-1.547,5.633,5.633,0,0,1-.453-2.328,4.779,4.779,0,0,1,1.008-3.238,3.472,3.472,0,0,1,2.766-1.16A3.407,3.407,0,0,1,92.281,16.4,4.83,4.83,0,0,1,93.277,19.621Zm-6.7,0a4.322,4.322,0,0,0,.77,2.73,2.9,2.9,0,0,0,4.352,0,4.322,4.322,0,0,0,.77-2.73,4.252,4.252,0,0,0-.777-2.727,2.642,2.642,0,0,0-2.184-.969,2.6,2.6,0,0,0-2.168.965A4.314,4.314,0,0,0,86.574,19.621Z"/></svg>