<?xml version="1.0" encoding="utf-8"?>
<!-- Generator: Adobe Illustrator 22.1.0, SVG Export Plug-In . SVG Version: 6.00 Build 0)  -->
<svg version="1.1" id="Layer_1" xmlns="http://www.w3.org/2000/svg" xmlns:xlink="http://www.w3.org/1999/xlink" x="0px" y="0px"
	 viewBox="0 0 727 486" style="enable-background:new 0 0 727 486;" xml:space="preserve">
<style type="text/css">
	.st0{fill:#F6740A;}
	.st1{fill:#FFFFFF;}
	.st2{font-family:'Overpass-Mono';}
	.st3{font-size:11.95px;}
	.st4{fill:none;stroke:#9A4D1B;stroke-width:0.5;}
	.st5{font-size:11px;}
	.st6{fill:none;stroke:#FFFFFF;stroke-width:4;stroke-linecap:round;stroke-linejoin:round;}
</style>
<path class="st0" d="M0,0h727v486H0V0z"/>
<text transform="matrix(0 -1 1 0 97.48 312.0098)" class="st1 st2 st3">TRI</text>
<text transform="matrix(0 -1 1 0 97.48 287.2695)" class="st1 st2 st3">L</text>
<text transform="matrix(0 -1 1 0 97.48 279.0195)" class="st1 st2 st3">LION C</text>
<text transform="matrix(0 -1 1 0 97.48 229.54)" class="st1 st2 st3">U</text>
<text transform="matrix(0 -1 1 0 97.48 221.2803)" class="st1 st2 st3">B</text>
<text transform="matrix(0 -1 1 0 97.48 213.04)" class="st1 st2 st3">I</text>
<text transform="matrix(0 -1 1 0 97.48 204.7803)" class="st1 st2 st3">C</text>
<text transform="matrix(0 -1 1 0 97.48 196.54)" class="st1 st2 st3"> F</text>
<text transform="matrix(0 -1 1 0 97.48 180.0195)" class="st1 st2 st3">EE</text>
<text transform="matrix(0 -1 1 0 97.48 163.5303)" class="st1 st2 st3">T</text>
<g>
	<path class="st4" d="M147,440V89"/>
	<path class="st4" d="M245.9,440V89"/>
	<path class="st4" d="M344.8,440V89"/>
	<path class="st4" d="M443.7,440V89"/>
	<path class="st4" d="M542.6,440V89"/>
	<path class="st4" d="M641.5,440V89"/>
</g>
<g id="Layer_6">
	<text transform="matrix(1 0 0 1 134 460.3604)" class="st1 st2 st5">1918</text>
	<text transform="matrix(1 0 0 1 233 460.3604)" class="st1 st2 st5">1948</text>
	<text transform="matrix(1 0 0 1 333 460.3604)" class="st1 st2 st5">1968</text>
	<text transform="matrix(1 0 0 1 432 460.3604)" class="st1 st2 st5">1988</text>
	<text transform="matrix(1 0 0 1 531 460.3604)" class="st1 st2 st5">2008</text>
	<text transform="matrix(1 0 0 1 631 460.3604)" class="st1 st2 st5">2017</text>
	<text transform="matrix(1 0 0 1 112 440.3604)" class="st1 st2 st5">0</text>
	<text transform="matrix(1 0 0 1 112 327.3604)" class="st1 st2 st5">10</text>
	<text transform="matrix(1 0 0 1 112 212.3604)" class="st1 st2 st5">20</text>
	<text transform="matrix(1 0 0 1 112 98.3604)" class="st1 st2 st5">30</text>
</g>
<g id="Layer_7">
	<polyline class="st6" points="147.5,428 152,430.5 158,428 165.5,425 173,424 188.3,419.3 193.3,415 198.7,415 204.7,418.7 
		210.3,419.7 215.7,418.7 221,416.3 225,415 234,409.7 240,411.3 256.7,404 261.3,400.7 270.7,394 281,390.7 291,379 296,376.3 
		301.7,365 306.7,352.7 314.3,344.3 322.3,338 337.7,316.3 343,312 348.3,300.3 353.3,292.3 363.5,279 373.3,260.7 379,255 
		389.7,229.5 404.3,188.7 409.7,183 414.3,183 419.7,182 425.7,196.5 429.7,209.7 436,212.4 440.7,210.7 445.7,211.4 450.3,206.8 
		460.7,212.4 471.3,245.7 476.3,229.5 481.3,241.3 487.3,246.3 496.7,235 503,231.7 507.7,226.7 513.3,227.7 522.3,223.3 528,214.7 
		533.7,216.7 539.3,212.4 547.7,211 553,213 563.7,204.8 568.7,212.4 574.7,211.4 584,222.7 589.3,217.3 600,198.3 609.7,183.7 
		620.3,150.7 625.3,148 636,111.7 641.5,114.3 646.3,110.7 	"/>
</g>
</svg>
